<svg width="40" height="40" viewBox="0 0 40 40" fill="none" xmlns="http://www.w3.org/2000/svg">
<path d="M27.4434 12.5C26.0717 7.06165 23.2534 3.33331 20 3.33331C15.3984 3.33331 11.6667 10.795 11.6667 20C11.6667 29.205 15.3984 36.6666 20 36.6666C20.57 36.6666 21.1284 36.5516 21.6667 36.3333" stroke="#EEEEEE" stroke-width="2" stroke-linecap="round" stroke-linejoin="round"/>
<path d="M25.3234 22.845L31.68 25.945L28.58 32.3016" stroke="#EEEEEE" stroke-width="2" stroke-linecap="round" stroke-linejoin="round"/>
<path d="M31.6666 25.95C28.66 27.425 24.5433 28.3334 20 28.3334C10.795 28.3334 3.33331 24.6017 3.33331 20C3.33331 15.3984 10.795 11.6667 20 11.6667C28.0633 11.6667 34.7883 14.53 36.3333 18.3334" stroke="#EEEEEE" stroke-width="2" stroke-linecap="round" stroke-linejoin="round"/>
</svg>
