<svg width="40" height="40" viewBox="0 0 40 40" fill="none" xmlns="http://www.w3.org/2000/svg">
<path d="M6.66667 23.3333C6.35127 23.3344 6.04205 23.246 5.77492 23.0783C5.50779 22.9106 5.29372 22.6706 5.15758 22.3861C5.02144 22.1016 4.96882 21.7843 5.00583 21.4711C5.04284 21.1579 5.16797 20.8616 5.36667 20.6167L21.8667 3.61665C21.9904 3.47379 22.1591 3.37725 22.345 3.34287C22.5308 3.3085 22.7229 3.33834 22.8896 3.42749C23.0562 3.51665 23.1876 3.65981 23.2622 3.8335C23.3368 4.00719 23.3501 4.20107 23.3 4.38332L20.1 14.4167C20.0056 14.6692 19.974 14.9409 20.0077 15.2083C20.0414 15.4758 20.1394 15.7311 20.2935 15.9524C20.4475 16.1736 20.653 16.3542 20.8921 16.4786C21.1313 16.603 21.3971 16.6675 21.6667 16.6667H33.3333C33.6487 16.6656 33.9579 16.754 34.2251 16.9217C34.4922 17.0894 34.7063 17.3294 34.8424 17.6139C34.9786 17.8984 35.0312 18.2157 34.9942 18.5289C34.9572 18.8421 34.832 19.1384 34.6333 19.3833L18.1333 36.3833C18.0096 36.5262 17.8409 36.6227 17.655 36.6571C17.4692 36.6915 17.2771 36.6616 17.1104 36.5725C16.9438 36.4833 16.8124 36.3402 16.7378 36.1665C16.6632 35.9928 16.6499 35.7989 16.7 35.6167L19.9 25.5833C19.9944 25.3308 20.026 25.0591 19.9923 24.7916C19.9586 24.5242 19.8606 24.2689 19.7065 24.0476C19.5525 23.8264 19.347 23.6458 19.1079 23.5214C18.8687 23.397 18.6029 23.3324 18.3333 23.3333H6.66667Z" stroke="#EEEEEE" stroke-width="2" stroke-linecap="round" stroke-linejoin="round"/>
</svg>
