<svg width="142" height="142" fill="none" xmlns="http://www.w3.org/2000/svg"><path d="M26.755 3.294c-10.926 5.725-16.8 19.084-13.98 31.728 1.644 7.634 3.641 11.212 9.045 16.34 6.58 6.203 7.754 6.919 14.45 9.304l6.226 2.267-6.108 1.312C21.586 67.465 8.193 76.41 3.14 86.43.205 92.275-.97 104.8.91 111.717c2.702 10.138 13.275 17.176 23.026 15.387 8.928-1.789 12.923-10.616 7.284-15.983-3.642-3.459-5.287-3.34-5.757.596-.235 2.624-1.057 3.459-3.642 3.698-6.696.834-11.395-8.111-8.928-16.938 1.645-6.083 9.633-14.075 16.095-15.983 6.813-2.147 15.859-3.101 19.5-2.147l2.938.716-4.582 6.322c-5.051 6.679-8.223 15.267-8.223 22.424 0 10.973 8.928 25.525 18.091 29.819 16.33 7.514 34.304-3.817 31.837-20.039-1.058-7.514-7.284-14.074-12.1-12.882-1.763.358-4.23 1.789-5.404 2.982-2.233 2.147-2.233 2.267.94 3.101 1.644.358 3.876 1.909 4.816 3.221 5.874 8.469-5.639 15.387-15.507 9.184-6.109-3.697-7.754-7.276-7.166-15.386.587-8.111 4.229-14.671 11.043-19.92l4.229-3.34 2.467 3.46c7.636 11.092 23.495 20.754 35.478 21.708C124.966 113.268 142 101.936 142 88.816s-15.625-23.975-22.203-15.387c-3.172 4.175-3.055 5.487.235 4.652 1.762-.477 3.759.12 5.874 1.908 2.819 2.147 3.289 3.34 2.937 7.515-.353 4.413-.823 5.129-5.639 7.633-7.049 3.579-14.333 3.46-21.969-.357-7.048-3.579-15.39-10.735-18.209-15.626l-1.88-3.459 9.281.358c17.152.716 27.49-4.652 33.481-17.414 2.702-5.487 3.29-8.469 3.29-15.864.117-7.992-.235-9.662-3.407-14.91-6.226-10.258-18.092-14.432-27.255-9.661-5.051 2.743-9.75 9.9-9.75 14.91 0 4.89 4.464 9.78 9.045 9.78 2.467 0 2.82-.358 1.763-1.431-2.115-2.147-1.645-8.707.704-10.854 5.874-5.487 14.333.954 14.333 10.854 0 12.285-8.811 21.708-20.442 21.708-4.581 0-6.226-.596-9.045-3.459l-3.407-3.578 2.35-3.936c1.292-2.147 2.349-5.13 2.349-6.56 0-2.863-5.287-9.9-7.519-9.9-.822 0-2.114-2.744-2.936-6.322C70.925 15.58 62.115 5.44 50.015 1.744 40.852-1 34.038-.523 26.755 3.294ZM76.683 42.06c2.584 1.909 2.114 6.56-.705 8.469-4.7 2.863-9.399-5.248-4.934-8.469 1.174-.835 2.467-1.55 2.819-1.55.352 0 1.645.715 2.82 1.55ZM59.06 46.711c1.645 2.863-.353 6.202-3.994 6.68-4.817.715-7.05-5.487-3.055-8.47 1.997-1.311 5.64-.476 7.049 1.79Z" fill="#fff"/></svg>