<svg width="32" height="33" viewBox="0 0 32 33" fill="none" xmlns="http://www.w3.org/2000/svg">
<path d="M2.94386 8.37774L2.94397 8.37821C3.12861 9.23523 3.33206 9.85979 3.63866 10.4128C3.94515 10.9657 4.35683 11.4509 4.96307 12.0263C5.70495 12.7257 6.13741 13.1111 6.57148 13.3894C7.00448 13.6671 7.44132 13.8397 8.19593 14.1085L8.19636 14.1087L9.59947 14.6194L9.81707 14.6986L9.59067 14.7472L8.2142 15.0428C4.89087 15.7659 1.8939 17.7731 0.767469 20.0073C0.442009 20.655 0.211445 21.6802 0.115802 22.7417C0.0201905 23.8029 0.0603863 24.8894 0.269272 25.6582L0.269357 25.6585C0.870015 27.9123 3.22115 29.4737 5.38131 29.0776C6.36847 28.8796 7.07708 28.294 7.38484 27.617C7.69169 26.942 7.60246 26.1733 6.98927 25.5896C6.78553 25.3961 6.61236 25.2552 6.46627 25.1655C6.31868 25.0748 6.20748 25.0419 6.12494 25.0499C6.04857 25.0573 5.98354 25.1013 5.92851 25.2026C5.87215 25.3065 5.83042 25.4642 5.80428 25.6826C5.77746 25.981 5.71633 26.1958 5.57367 26.3407C5.4308 26.4857 5.21874 26.5479 4.92444 26.5752C4.13407 26.6732 3.46984 26.1924 3.07792 25.448C2.6857 24.703 2.5588 23.6843 2.84099 22.6744C3.03068 21.9731 3.58229 21.1704 4.26466 20.4911C4.94724 19.8116 5.77033 19.2459 6.51272 19.0265C6.51291 19.0264 6.5131 19.0263 6.5133 19.0263L6.53218 19.0902C8.06766 18.6064 10.1061 18.3914 10.9268 18.6064L2.94386 8.37774ZM2.94386 8.37774C2.31457 5.55579 3.62667 2.57662 6.06012 1.3014C7.68369 0.450603 9.20078 0.342751 11.2517 0.956731C13.9524 1.78208 15.9227 4.04559 16.6066 7.1433L16.6067 7.14386C16.7001 7.55031 16.8206 7.91115 16.9422 8.17181C17.0028 8.3018 17.065 8.40954 17.1258 8.48589C17.1563 8.52406 17.188 8.55645 17.2209 8.57977C17.2535 8.60291 17.2917 8.6202 17.3335 8.6202C17.3802 8.6202 17.4422 8.6391 17.5185 8.68128C17.5937 8.7229 17.6776 8.78421 17.7667 8.86169C17.9447 9.01659 18.1376 9.23126 18.3161 9.46731C18.4945 9.70323 18.6568 9.95847 18.7742 10.1936C18.8928 10.4311 18.9612 10.6395 18.9612 10.7845C18.9612 10.9339 18.9049 11.1736 18.8095 11.4408C18.7148 11.706 18.5842 11.9909 18.4412 12.2285L18.4411 12.2287L17.9116 13.1157L17.8857 13.1592L17.9206 13.1959L18.6883 14.0022L18.6891 14.0031C19.0094 14.3283 19.269 14.531 19.5833 14.6503C19.8964 14.769 20.2574 14.8024 20.7751 14.8024C23.4367 14.8024 25.4482 12.6452 25.4482 9.84374C25.4482 8.71016 24.964 7.76871 24.3033 7.26733C23.9727 7.01643 23.5963 6.87481 23.2143 6.87789C22.8315 6.88097 22.4486 7.02934 22.1065 7.34875C21.9634 7.47964 21.8528 7.67361 21.7738 7.89345C21.6945 8.11421 21.6455 8.36566 21.6285 8.61624C21.6116 8.86676 21.6267 9.11866 21.6772 9.34028C21.7275 9.56088 21.8142 9.75735 21.9454 9.89052C22.0042 9.95025 22.0359 9.99295 22.048 10.0219C22.0537 10.0354 22.0528 10.0408 22.0528 10.041C22.0528 10.0411 22.0528 10.041 22.0528 10.0409C22.0529 10.0408 22.0529 10.0408 22.0528 10.041C22.0527 10.0412 22.0518 10.0426 22.0491 10.0448C22.0351 10.0567 21.9975 10.0727 21.9167 10.0839C21.8394 10.0946 21.7338 10.0996 21.5958 10.0996C21.103 10.0996 20.61 9.83592 20.2384 9.43235C19.867 9.02905 19.624 8.49356 19.624 7.96219C19.624 7.41579 19.8815 6.7432 20.2848 6.12723C20.6875 5.51227 21.2292 4.96365 21.7859 4.66114C23.8126 3.60627 26.4503 4.5254 27.8395 6.81398C28.1962 7.40412 28.39 7.78628 28.4934 8.24236C28.5973 8.70051 28.6109 9.23712 28.5976 10.1384V10.1394C28.5976 10.9715 28.5645 11.5507 28.4567 12.0747C28.3491 12.5979 28.1663 13.0694 27.8632 13.6849L27.8627 13.686C27.1927 15.1132 26.2821 16.1225 25.0629 16.7564C23.8424 17.391 22.3065 17.6525 20.3808 17.5721L20.3806 17.5721L18.2891 17.4915L18.172 17.487L18.228 17.5899L18.6516 18.3694L18.6515 18.3694L18.6524 18.3709C18.9756 18.9316 19.6111 19.6161 20.3611 20.2597C21.112 20.9041 21.9834 21.5121 22.7834 21.9182L22.7838 21.9184C24.5217 22.7871 26.1854 22.8157 27.7944 21.9989L27.7949 21.9986C28.3348 21.7178 28.6477 21.5299 28.8306 21.2799C29.0153 21.0275 29.0618 20.7198 29.1014 20.2246C29.1411 19.7541 29.1363 19.4378 29.0341 19.1768C28.9313 18.914 28.7337 18.7167 28.4148 18.4737C27.9296 18.0637 27.4581 17.9162 27.0324 18.0312C26.8488 18.0778 26.7198 18.0913 26.6389 18.0778C26.5994 18.0712 26.5774 18.0592 26.5651 18.0471C26.5539 18.0361 26.5451 18.0197 26.5434 17.991C26.5397 17.9274 26.5714 17.8228 26.6573 17.6667C26.7415 17.5138 26.8716 17.3219 27.0495 17.0878C27.4066 16.6217 27.8842 16.4204 28.4033 16.4236C28.9249 16.4269 29.4911 16.6371 30.0162 17.0014C31.0672 17.7304 31.9333 19.0621 31.9333 20.5148C31.9333 21.9631 30.9924 23.3225 29.5475 24.2795C28.1037 25.2356 26.1662 25.7826 24.1961 25.6092L24.1955 25.6092C22.8591 25.5028 21.3006 24.9097 19.8601 24.0295C18.42 23.1496 17.104 21.9863 16.25 20.7458L16.2494 20.7449L15.6935 19.9654L15.6528 19.9084L15.5979 19.9518L14.6454 20.7039C14.6453 20.704 14.6452 20.7041 14.6451 20.7042C13.0958 21.8976 12.2649 23.3929 12.1311 25.2408C12.0646 26.1584 12.1233 26.8306 12.3787 27.3803C12.6347 27.9314 13.0839 28.3499 13.7775 28.7698L2.94386 8.37774ZM10.9437 18.5419C10.9435 18.5419 10.9433 18.5418 10.9431 18.5417L17.307 26.6433C17.0952 26.3476 16.5922 25.9982 16.2216 25.9176L16.2386 25.8531C16.2381 25.853 16.2376 25.8529 16.2372 25.8527C16.0582 25.8056 15.9287 25.7697 15.8407 25.735C15.7966 25.7176 15.7668 25.702 15.7475 25.6877C15.7285 25.6737 15.7242 25.6643 15.723 25.6603C15.722 25.6568 15.7206 25.648 15.7288 25.6287C15.7372 25.6086 15.7538 25.5822 15.782 25.5475C15.8384 25.4779 15.9293 25.3886 16.056 25.2668L16.0573 25.2655C16.1839 25.137 16.3833 24.9927 16.6017 24.8703C16.8201 24.7478 17.0516 24.6505 17.2409 24.6121L17.2409 24.6121L17.2436 24.6114C17.7515 24.4857 18.3503 24.7672 18.8602 25.3081C19.3674 25.8462 19.7713 26.6266 19.8884 27.459L19.8885 27.4597C20.162 29.2582 19.3035 30.7858 17.9201 31.657C16.5361 32.5286 14.6275 32.7421 12.8081 31.905C11.7919 31.4287 10.7814 30.3789 10.0241 29.1353C9.26701 27.892 8.7697 26.466 8.7697 25.2456C8.7697 23.6499 9.47808 21.7284 10.6094 20.2325L10.6102 20.2314L11.6427 18.8068L11.7009 18.7264L11.6045 18.7029L10.9437 18.5419ZM17.3202 9.92449L17.3192 9.92379C17.185 9.8284 17.0438 9.73966 16.9256 9.67447C16.8665 9.64193 16.8122 9.61473 16.7668 9.59546C16.744 9.58584 16.7227 9.57781 16.7034 9.57209C16.6851 9.56667 16.6647 9.56204 16.6452 9.56204C16.6257 9.56204 16.6052 9.56667 16.587 9.57209C16.5677 9.57781 16.5463 9.58584 16.5236 9.59546C16.4782 9.61473 16.4239 9.64193 16.3648 9.67447C16.2465 9.73966 16.1054 9.8284 15.9712 9.92379L15.9708 9.92407C15.4298 10.3144 15.4524 10.9956 15.7338 11.4799C15.8753 11.7236 16.0861 11.926 16.3352 12.0246C16.5867 12.1241 16.8734 12.1159 17.1564 11.9435L17.1564 11.9436L17.1591 11.9418C17.496 11.7137 17.6896 11.3244 17.7242 10.9383C17.7588 10.5524 17.635 10.157 17.3202 9.92449ZM13.3673 10.9932L13.3673 10.9932L13.3661 10.9912C13.1959 10.7176 12.8945 10.5347 12.5808 10.4577C12.2678 10.3809 11.9295 10.4065 11.6844 10.5675L11.6844 10.5674L11.6812 10.5698C11.206 10.9246 11.0998 11.4736 11.2579 11.9125C11.4163 12.3522 11.8414 12.6832 12.4186 12.5977C12.847 12.5414 13.1833 12.316 13.3634 12.0149C13.5441 11.7127 13.5651 11.3375 13.3673 10.9932Z" fill="white" stroke="#363636" stroke-width="0.133333"/>
</svg>
